<?xml version="1.0" standalone="no"?><!DOCTYPE svg PUBLIC "-//W3C//DTD SVG 1.1//EN" "http://www.w3.org/Graphics/SVG/1.1/DTD/svg11.dtd"><svg t="1607840217556" class="icon" viewBox="0 0 1109 1024" version="1.1" xmlns="http://www.w3.org/2000/svg" p-id="3136" width="19.494140625" height="18" xmlns:xlink="http://www.w3.org/1999/xlink"><defs><style type="text/css"></style></defs><path d="M1106.513245 387.280345a51.182086 51.182086 0 0 0-41.7134-33.86548l-320.485164-45.040236L601.004839 27.811493A51.864514 51.864514 0 0 0 554.599748 0.002559a51.864514 51.864514 0 0 0-46.319788 27.808934l-143.309842 280.648439-320.570467 44.954933a51.182086 51.182086 0 0 0-41.798703 33.950784 48.708285 48.708285 0 0 0 13.136735 51.182086l232.025458 218.376901-54.850136 308.37207a49.134803 49.134803 0 0 0 20.558138 48.793589 53.144066 53.144066 0 0 0 54.508922 3.838657l286.619683-145.613036 286.704987 145.613036a53.314673 53.314673 0 0 0 54.423618-3.838657 49.134803 49.134803 0 0 0 20.558138-48.793589L861.521659 656.839333l232.025457-218.376902a48.793589 48.793589 0 0 0 12.966129-51.182086z" fill="#FFB856" p-id="3137"></path></svg>