<?xml version="1.0" standalone="no"?><!DOCTYPE svg PUBLIC "-//W3C//DTD SVG 1.1//EN" "http://www.w3.org/Graphics/SVG/1.1/DTD/svg11.dtd"><svg t="1607828824535" class="icon" viewBox="0 0 1024 1024" version="1.1" xmlns="http://www.w3.org/2000/svg" p-id="7258" xmlns:xlink="http://www.w3.org/1999/xlink" width="16" height="16"><defs><style type="text/css"></style></defs><path d="M452.089004 132.614343l-98.304934 200.876031-220.428341 32.242331c-75.150584 11.151991-90.173742 61.994959-36.954657 114.690112L255.458671 636.039038l-37.564547 221.332944c-12.534478 75.643817 31.30089 105.398492 97.068779 70.675666l196.536189-105.965404V81.542154h-0.179079c-21.409612 0.338714-42.719964 17.470907-59.231009 51.072189z" fill="#ff8a47" p-id="7259" data-spm-anchor-id="a313x.7781069.0.i23" class="selected"></path><path d="M890.457006 366.131795l-220.427318-32.242332-98.32233-200.87603c-16.996093-34.594913-38.743396-51.41602-60.386322-51.073212h0.179079v740.540089l0.093121-0.050142 197.257619 105.388259c67.63133 35.966143 109.585861 3.106758 97.070826-70.671573L768.349971 636.438127l158.419056-154.99098 0.644683-0.62524c54.471612-52.695153 36.941354-104.148012-36.956704-114.690112z" fill="#c6c6c6" p-id="7260" data-spm-anchor-id="a313x.7781069.0.i24" class=""></path></svg>