<svg xmlns="http://www.w3.org/2000/svg" xmlns:xlink="http://www.w3.org/1999/xlink" width="170" height="170" viewBox="0 0 170 170">
  <defs>
    <linearGradient id="linear-gradient" x1="0.5" y1="-0.775" x2="0.5" y2="1" gradientUnits="objectBoundingBox">
      <stop offset="0" stop-color="#f0e9bc"/>
      <stop offset="1" stop-color="#feffe8"/>
    </linearGradient>
    <filter id="椭圆_2" x="0" y="0" width="170" height="170" filterUnits="userSpaceOnUse">
      <feOffset dy="3" input="SourceAlpha"/>
      <feGaussianBlur stdDeviation="5" result="blur"/>
      <feFlood flood-opacity="0.161"/>
      <feComposite operator="in" in2="blur"/>
      <feComposite in="SourceGraphic"/>
    </filter>
  </defs>
  <g id="组件_17_1" data-name="组件 17 – 1" transform="translate(15 12)">
    <g transform="matrix(1, 0, 0, 1, -15, -12)" filter="url(#椭圆_2)">
      <circle id="椭圆_2-2" data-name="椭圆 2" cx="70" cy="70" r="70" transform="translate(15 12)" fill="url(#linear-gradient)"/>
    </g>
    <g id="关闭icon_copy_2" data-name="关闭icon copy 2" transform="translate(37 37)">
      <path id="Combined_Shape" data-name="Combined Shape" d="M17,52.141H2a2.018,2.018,0,0,1-2-2.03V17.692a2.037,2.037,0,0,1,.876-1.679L23.314.527a2.962,2.962,0,0,1,3.373,0L49.125,16.013A2.039,2.039,0,0,1,50,17.692V50.109a2.018,2.018,0,0,1-2,2.03H33v-12.3a8,8,0,0,0-16,0v12.3Z" transform="translate(8 5.724)" fill="none" stroke="#333" stroke-miterlimit="10" stroke-width="4"/>
    </g>
  </g>
</svg>
