<?xml version="1.0" standalone="no"?><!DOCTYPE svg PUBLIC "-//W3C//DTD SVG 1.1//EN" "http://www.w3.org/Graphics/SVG/1.1/DTD/svg11.dtd"><svg t="1607923933746" class="icon" viewBox="0 0 1024 1024" version="1.1" xmlns="http://www.w3.org/2000/svg" p-id="1738" xmlns:xlink="http://www.w3.org/1999/xlink" width="18" height="18"><defs><style type="text/css"></style></defs><path d="M511.999744 0.000512c27.801586 0 50.329575 22.527989 50.329575 50.329575v155.135922a50.534375 50.534375 0 0 1-100.86395 0V50.586087A50.329575 50.329575 0 0 1 511.999744 0.000512z" fill="#EAEAEA" p-id="1739"></path><path d="M778.034811 76.186074a50.329575 50.329575 0 0 1 18.534391 68.863965l-77.619161 134.399933a50.585575 50.585575 0 0 1-87.500757-50.329575L709.119645 94.720465a50.585575 50.585575 0 0 1 68.915166-18.534391z" fill="#9B9B9B" p-id="1740"></path><path d="M946.329127 260.915582a50.329575 50.329575 0 0 1-18.534391 68.915165l-134.399933 77.619161a50.585575 50.585575 0 0 1-50.329575-87.449556l134.399933-77.670361a50.534375 50.534375 0 0 1 68.863966 18.585591z" fill="#9D9B9B" p-id="1741"></path><path d="M1023.999488 502.169861c0 27.801586-22.527989 50.380775-50.329575 50.380775h-155.340722a50.329575 50.329575 0 0 1 0-100.71035h155.340722a50.175975 50.175975 0 0 1 50.329575 50.329575z" fill="#A19F9F" p-id="1742"></path><path d="M946.329127 763.08493a50.790375 50.790375 0 0 1-68.863966 18.585591l-134.399933-77.670361a50.585575 50.585575 0 1 1 50.329575-87.449556l134.399933 77.619161a50.329575 50.329575 0 0 1 18.534391 68.915165z" fill="#A9A9A9" p-id="1743"></path><path d="M778.034811 967.475228a50.329575 50.329575 0 0 1-68.915166-18.58559l-77.670361-134.143933a50.585575 50.585575 0 0 1 87.500757-50.380775l77.619161 134.195133a50.175975 50.175975 0 0 1-18.534391 68.915165z" fill="#B0B0B0" p-id="1744"></path><path d="M511.999744 1024a50.585575 50.585575 0 0 1-50.534375-50.329575v-155.135922a50.534375 50.534375 0 0 1 100.86395 0v155.135922c0 27.801586-22.527989 50.329575-50.329575 50.329575z" fill="#B8B8B8" p-id="1745"></path><path d="M245.964677 967.475228a50.329575 50.329575 0 0 1-18.534391-68.915165l77.619161-134.143933a50.585575 50.585575 0 1 1 87.500757 50.329575l-77.670361 134.143933a50.585575 50.585575 0 0 1-68.915166 18.58559z" fill="#C1C0C0" p-id="1746"></path><path d="M57.599971 763.08493a50.329575 50.329575 0 0 1 18.585591-68.915165l134.399933-77.619161a50.585575 50.585575 0 1 1 50.329575 87.449556L126.463937 781.670521a50.534375 50.534375 0 0 1-68.915166-18.585591z" fill="#C9C8C8" p-id="1747"></path><path d="M0 502.169861c0-27.801586 22.527989-50.329575 50.329575-50.329575h155.340722a50.329575 50.329575 0 0 1 0 100.71035H50.329575A50.329575 50.329575 0 0 1 0 502.169861z" fill="#D3D3D3" p-id="1748"></path><path d="M57.599971 260.915582a50.585575 50.585575 0 0 1 68.915166-18.585591L260.91507 320.000352a50.585575 50.585575 0 1 1-50.329575 87.449556L76.185562 329.830747a50.329575 50.329575 0 0 1-18.585591-68.915165z" fill="#DBDBDB" p-id="1749"></path><path d="M245.964677 76.186074a50.329575 50.329575 0 0 1 68.915166 18.534391l77.670361 134.143933a50.585575 50.585575 0 1 1-87.500757 50.380774l-77.619161-134.143933a50.329575 50.329575 0 0 1 18.534391-68.915165z" fill="#E1E1E1" p-id="1750"></path></svg>