<?xml version="1.0" standalone="no"?><!DOCTYPE svg PUBLIC "-//W3C//DTD SVG 1.1//EN" "http://www.w3.org/Graphics/SVG/1.1/DTD/svg11.dtd"><svg t="1605689426083" class="icon" viewBox="0 0 1024 1024" version="1.1" xmlns="http://www.w3.org/2000/svg" p-id="1891" xmlns:xlink="http://www.w3.org/1999/xlink" width="40" height="40"><defs><style type="text/css"></style></defs><path d="M87.514 687.093c-13.839 14.39000001-13.393 37.274 0.999 51.113 14.39 13.84 37.274 13.393 51.113-0.999L510.01600001 363.43 885.583 735.625c14.188 14.068 37.092 13.97 51.162-0.219 14.06700001-14.187 13.969-37.092-0.22-51.161L537.377 288.68c-0.612-0.621-1.41-0.767-2.02-1.34-0.136-0.136-0.174-0.32-0.32-0.464l-0.008-0.007c-14.174-14.054-37.055-13.954-51.11 0.22l-395.594 399.187c-0.276 0.266-0.546 0.54-0.81 0.817z" p-id="1892" fill="#515151"></path></svg>