<svg xmlns="http://www.w3.org/2000/svg" xmlns:xlink="http://www.w3.org/1999/xlink" width="136" height="136" viewBox="0 0 136 136">
  <defs>
    <linearGradient id="linear-gradient" x1="0.108" y1="1" x2="1.225" y2="-0.231" gradientUnits="objectBoundingBox">
      <stop offset="0" stop-color="#fff"/>
      <stop offset="1" stop-color="#f5f0f0"/>
    </linearGradient>
    <filter id="椭圆_3" x="0" y="0" width="136" height="136" filterUnits="userSpaceOnUse">
      <feOffset dx="-6" dy="6" input="SourceAlpha"/>
      <feGaussianBlur stdDeviation="6" result="blur"/>
      <feFlood flood-opacity="0.071"/>
      <feComposite operator="in" in2="blur"/>
      <feComposite in="SourceGraphic"/>
    </filter>
  </defs>
  <g id="组_38" data-name="组 38" transform="translate(24 12)">
    <g id="组_39" data-name="组 39">
      <g transform="matrix(1, 0, 0, 1, -24, -12)" filter="url(#椭圆_3)">
        <circle id="椭圆_3-2" data-name="椭圆 3" cx="50" cy="50" r="50" transform="translate(24 12)" fill="url(#linear-gradient)"/>
      </g>
      <path id="图标_X_写评论_66" data-name="图标 / X / 写评论 / 66" d="M25.05,45.974a1.825,1.825,0,0,1,0-3.65H48.174a1.825,1.825,0,1,1,0,3.65ZM2.5,45.925A2.829,2.829,0,0,1,.02,42.783l1.109-9.405a10.845,10.845,0,0,1,2.345-5.565L24.1,2.349A6.622,6.622,0,0,1,29.491,0a10.384,10.384,0,0,1,6.3,2.4,10.381,10.381,0,0,1,3.662,5.667,6.621,6.621,0,0,1-1.174,5.765L17.663,39.3a10.853,10.853,0,0,1-4.955,3.451L3.738,45.794a2.861,2.861,0,0,1-1.238.131ZM26.933,4.646,6.312,30.111a7.2,7.2,0,0,0-1.557,3.694L3.8,41.918,11.534,39.3a7.2,7.2,0,0,0,3.29-2.291L35.447,11.54a3.237,3.237,0,0,0,.374-2.965A6.888,6.888,0,0,0,33.5,5.243a6.884,6.884,0,0,0-3.742-1.579q-.185-.014-.364-.014A3.081,3.081,0,0,0,26.933,4.646Z" transform="translate(24.5 27)" fill="#ff8a47"/>
    </g>
  </g>
</svg>
